<svg width="64" height="64" viewBox="0 0 64 64" fill="none" xmlns="http://www.w3.org/2000/svg">
<path d="M15.5306 9.68533L32 26.1547L48.384 9.77067C48.7459 9.38546 49.1818 9.07731 49.6657 8.86469C50.1496 8.65207 50.6714 8.53937 51.2 8.53333C52.3315 8.53333 53.4168 8.98286 54.2169 9.78301C55.0171 10.5832 55.4666 11.6684 55.4666 12.8C55.4766 13.3231 55.3795 13.8427 55.1814 14.327C54.9833 14.8112 54.6883 15.2499 54.3146 15.616L37.7173 32L54.3146 48.5973C55.0178 49.2853 55.4302 50.2169 55.4666 51.2C55.4666 52.3316 55.0171 53.4168 54.2169 54.217C53.4168 55.0171 52.3315 55.4667 51.2 55.4667C50.6562 55.4892 50.1137 55.3985 49.6069 55.2001C49.1 55.0018 48.64 54.7003 48.256 54.3147L32 37.8453L15.5733 54.272C15.2128 54.6444 14.7821 54.9416 14.3061 55.1467C13.8301 55.3517 13.3182 55.4605 12.8 55.4667C11.6684 55.4667 10.5831 55.0171 9.78296 54.217C8.98281 53.4168 8.53329 52.3316 8.53329 51.2C8.52334 50.6769 8.62039 50.1573 8.81849 49.673C9.01659 49.1888 9.31156 48.7501 9.68529 48.384L26.2826 32L9.68529 15.4027C8.98208 14.7147 8.56972 13.7831 8.53329 12.8C8.53329 11.6684 8.98281 10.5832 9.78296 9.78301C10.5831 8.98286 11.6684 8.53333 12.8 8.53333C13.824 8.54613 14.8053 8.96 15.5306 9.68533Z" fill="#0E0E0E"/>
</svg>
