<svg width="48" height="48" viewBox="0 0 48 48" fill="none" xmlns="http://www.w3.org/2000/svg">
<g clip-path="url(#clip0_183_65)">
<path d="M24 -0.0507812C10.737 -0.0507812 -0.0510025 10.7372 -0.0510025 24.0002C-0.0510025 37.2632 10.737 48.0512 24 48.0512C37.263 48.0512 48.051 37.2632 48.051 24.0002C48.051 10.7372 37.263 -0.0507812 24 -0.0507812ZM24 46.4492C11.622 46.4492 1.551 36.3782 1.551 24.0002C1.551 11.6222 11.622 1.55122 24 1.55122C36.378 1.55122 46.449 11.6222 46.449 24.0002C46.449 36.3782 36.378 46.4492 24 46.4492Z" fill="white"/>
<path d="M18.7333 11H29.9333C34.2 11 37.6667 14.4667 37.6667 18.7333V29.9333C37.6667 31.9843 36.8519 33.9513 35.4016 35.4016C33.9513 36.8519 31.9843 37.6667 29.9333 37.6667H18.7333C14.4667 37.6667 11 34.2 11 29.9333V18.7333C11 16.6823 11.8148 14.7153 13.265 13.265C14.7153 11.8148 16.6823 11 18.7333 11ZM18.4667 13.6667C17.1936 13.6667 15.9727 14.1724 15.0726 15.0726C14.1724 15.9727 13.6667 17.1936 13.6667 18.4667V30.2C13.6667 32.8533 15.8133 35 18.4667 35H30.2C31.473 35 32.6939 34.4943 33.5941 33.5941C34.4943 32.6939 35 31.473 35 30.2V18.4667C35 15.8133 32.8533 13.6667 30.2 13.6667H18.4667ZM31.3333 15.6667C31.7754 15.6667 32.1993 15.8423 32.5118 16.1548C32.8244 16.4674 33 16.8913 33 17.3333C33 17.7754 32.8244 18.1993 32.5118 18.5118C32.1993 18.8244 31.7754 19 31.3333 19C30.8913 19 30.4674 18.8244 30.1548 18.5118C29.8423 18.1993 29.6667 17.7754 29.6667 17.3333C29.6667 16.8913 29.8423 16.4674 30.1548 16.1548C30.4674 15.8423 30.8913 15.6667 31.3333 15.6667ZM24.3333 17.6667C26.1014 17.6667 27.7971 18.369 29.0474 19.6193C30.2976 20.8695 31 22.5652 31 24.3333C31 26.1014 30.2976 27.7971 29.0474 29.0474C27.7971 30.2976 26.1014 31 24.3333 31C22.5652 31 20.8695 30.2976 19.6193 29.0474C18.369 27.7971 17.6667 26.1014 17.6667 24.3333C17.6667 22.5652 18.369 20.8695 19.6193 19.6193C20.8695 18.369 22.5652 17.6667 24.3333 17.6667ZM24.3333 20.3333C23.2725 20.3333 22.2551 20.7548 21.5049 21.5049C20.7548 22.2551 20.3333 23.2725 20.3333 24.3333C20.3333 25.3942 20.7548 26.4116 21.5049 27.1618C22.2551 27.9119 23.2725 28.3333 24.3333 28.3333C25.3942 28.3333 26.4116 27.9119 27.1618 27.1618C27.9119 26.4116 28.3333 25.3942 28.3333 24.3333C28.3333 23.2725 27.9119 22.2551 27.1618 21.5049C26.4116 20.7548 25.3942 20.3333 24.3333 20.3333Z" fill="white"/>
</g>
<defs>
<clipPath id="clip0_183_65">
<rect width="48" height="48" fill="white"/>
</clipPath>
</defs>
</svg>
