<svg width="48" height="48" viewBox="0 0 48 48" fill="none" xmlns="http://www.w3.org/2000/svg">
<g clip-path="url(#clip0_183_55)">
<path d="M24 -0.0507812C10.737 -0.0507812 -0.0510025 10.7372 -0.0510025 24.0002C-0.0510025 37.2632 10.737 48.0512 24 48.0512C37.263 48.0512 48.051 37.2632 48.051 24.0002C48.051 10.7372 37.263 -0.0507812 24 -0.0507812ZM24 46.4492C11.622 46.4492 1.551 36.3782 1.551 24.0002C1.551 11.6222 11.622 1.55122 24 1.55122C36.378 1.55122 46.449 11.6222 46.449 24.0002C46.449 36.3782 36.378 46.4492 24 46.4492Z" fill="black"/>
<path d="M14.8333 11C14.0819 11 13.3612 11.2985 12.8299 11.8299C12.2985 12.3612 12 13.0819 12 13.8333C12 14.5848 12.2985 15.3054 12.8299 15.8368C13.3612 16.3682 14.0819 16.6667 14.8333 16.6667C15.5848 16.6667 16.3054 16.3682 16.8368 15.8368C17.3682 15.3054 17.6667 14.5848 17.6667 13.8333C17.6667 13.0819 17.3682 12.3612 16.8368 11.8299C16.3054 11.2985 15.5848 11 14.8333 11ZM12.1667 19C12.1225 19 12.0801 19.0176 12.0488 19.0488C12.0176 19.0801 12 19.1225 12 19.1667V36.5C12 36.592 12.0747 36.6667 12.1667 36.6667H17.5C17.5442 36.6667 17.5866 36.6491 17.6179 36.6178C17.6491 36.5866 17.6667 36.5442 17.6667 36.5V19.1667C17.6667 19.1225 17.6491 19.0801 17.6179 19.0488C17.5866 19.0176 17.5442 19 17.5 19H12.1667ZM20.8333 19C20.7891 19 20.7467 19.0176 20.7155 19.0488C20.6842 19.0801 20.6667 19.1225 20.6667 19.1667V36.5C20.6667 36.592 20.7413 36.6667 20.8333 36.6667H26.1667C26.2109 36.6667 26.2533 36.6491 26.2845 36.6178C26.3158 36.5866 26.3333 36.5442 26.3333 36.5V27.1667C26.3333 26.5036 26.5967 25.8677 27.0656 25.3989C27.5344 24.9301 28.1703 24.6667 28.8333 24.6667C29.4964 24.6667 30.1323 24.9301 30.6011 25.3989C31.0699 25.8677 31.3333 26.5036 31.3333 27.1667V36.5C31.3333 36.592 31.408 36.6667 31.5 36.6667H36.8333C36.8775 36.6667 36.9199 36.6491 36.9512 36.6178C36.9824 36.5866 37 36.5442 37 36.5V25.0067C37 21.7707 34.1867 19.24 30.9667 19.532C29.9704 19.6227 28.9945 19.8693 28.0747 20.2627L26.3333 21.0093V19.1667C26.3333 19.1225 26.3158 19.0801 26.2845 19.0488C26.2533 19.0176 26.2109 19 26.1667 19H20.8333Z" fill="black"/>
</g>
<defs>
<clipPath id="clip0_183_55">
<rect width="48" height="48" fill="white"/>
</clipPath>
</defs>
</svg>
