<svg width="64" height="64" viewBox="0 0 64 64" fill="none" xmlns="http://www.w3.org/2000/svg">
<path d="M40.5727 50H27.8279V14.0478H40.678C44.2943 14.0478 47.4073 14.7675 50.0171 16.207C52.627 17.6348 54.6341 19.6887 56.0384 22.3687C57.4545 25.0488 58.1626 28.2555 58.1626 31.9888C58.1626 35.7338 57.4545 38.9522 56.0384 41.6439C54.6341 44.3357 52.6153 46.4013 49.982 47.8408C47.3605 49.2803 44.2241 50 40.5727 50ZM35.4291 43.4872H40.2567C42.5037 43.4872 44.3938 43.0893 45.9269 42.2934C47.4717 41.4859 48.6303 40.2395 49.4027 38.5543C50.1868 36.8573 50.5789 34.6688 50.5789 31.9888C50.5789 29.3322 50.1868 27.1612 49.4027 25.4759C48.6303 23.7907 47.4775 22.5501 45.9444 21.7543C44.4113 20.9585 42.5212 20.5606 40.2742 20.5606H35.4291V43.4872Z" fill="black"/>
<path d="M35.4199 50.0706V14.1183H27.8187V43.8035H12.4056V50.0706H35.4199Z" fill="black"/>
<rect x="5" y="35.9684" width="8.75693" height="7.06204" fill="black"/>
<rect x="10.9324" y="20.432" width="8.75693" height="2.96606" fill="black"/>
<rect x="19.6892" y="13.9348" width="15.7484" height="6.49708" fill="black"/>
<path d="M13.7216 49.8806C12.5763 49.8806 11.4422 49.7007 10.384 49.3511C9.32585 49.0015 8.36438 48.4891 7.5545 47.8432C6.74463 47.1973 6.1022 46.4304 5.66389 45.5865C5.22559 44.7425 5 43.838 5 42.9245L13.7216 42.9245L13.7216 49.8806Z" fill="black"/>
<path d="M10.9321 20.4319C10.9321 19.5787 11.1668 18.7338 11.6229 17.9456C12.0789 17.1573 12.7474 16.4411 13.59 15.8378C14.4327 15.2345 15.4331 14.7559 16.5341 14.4294C17.6351 14.1029 18.8151 13.9348 20.0068 13.9348L20.0068 20.4319L10.9321 20.4319Z" fill="black"/>
</svg>
