<svg width="2000" height="2000" viewBox="0 0 2000 2000" fill="none" xmlns="http://www.w3.org/2000/svg">
<circle cx="1000" cy="1000" r="900" fill="white"/>
<path d="M684.22 799.41C683.45 799.18 682.73 798.81 682 798.78C679.98 798.68 677.96 798.71 675.94 798.71C617.55 798.71 559.16 798.68 500.77 798.72C482.56 798.73 464.99 795.56 448.54 787.63C410.91 769.47 387.58 739.94 379.76 698.8C368.29 638.43 405.35 576.5 468.84 559.78C479.22 557.05 489.84 555.83 500.59 555.84C534.53 555.86 568.48 555.84 602.42 555.84C665.66 555.84 728.9 555.83 792.14 555.84C817.02 555.84 841.22 559.84 864.12 569.73C917.21 592.67 951.84 632.31 968.98 687.32C975.35 707.76 977.56 728.84 976.06 750.18C974.07 778.64 965.83 805.27 951.18 829.78C941.24 846.42 930.95 862.85 920.79 879.36C815.21 1051.01 709.6 1222.64 604.07 1394.32C593.63 1411.31 580.48 1425.51 563.48 1436.05C549.42 1444.76 534.25 1450.37 517.87 1452.97C454.9 1462.99 393.73 1422.24 380.26 1357.82C373.69 1326.38 379.16 1296.77 395.85 1269.35C412.75 1241.58 429.89 1213.96 446.93 1186.27C525.01 1059.35 603.09 932.43 681.15 805.5C682.29 803.65 683.83 801.96 684.22 799.39V799.41Z" fill="black"/>
<path d="M989.35 555.83C991.73 555.83 993.34 555.83 994.95 555.83C1043.44 555.83 1091.93 555.77 1140.42 555.85C1169.08 555.9 1196.6 561.51 1222.23 574.58C1272.03 599.98 1303.69 640.16 1318.23 693.96C1322.58 710.05 1324.33 726.51 1323.81 743.15C1322.8 775.32 1313.76 805.15 1296.98 832.61C1285.08 852.08 1273.09 871.49 1261.14 890.92C1157.99 1058.61 1054.83 1226.28 951.73 1394C942.95 1408.29 932.31 1420.82 918.77 1430.75C902.71 1442.53 884.84 1449.92 865.1 1453.01C806.43 1462.2 750.37 1427.46 731.6 1372.21C731.54 1372.02 731.52 1371.81 731.43 1371.63C729.61 1368 730.41 1364.96 732.55 1361.5C753.94 1327.01 775.14 1292.4 796.39 1257.83C886.16 1111.79 975.91 965.74 1065.71 819.73C1076.58 802.05 1084.89 783.35 1089.64 763.11C1094.4 742.85 1095.56 722.37 1093.03 701.74C1087.28 654.84 1066.42 615.83 1031.21 584.45C1020 574.46 1007.51 566.29 994.15 559.46C992.63 558.69 990.69 558.46 989.34 555.84L989.35 555.83Z" fill="black"/>
<path d="M1077.31 1366.22C1078.69 1363.93 1080.03 1361.67 1081.4 1359.44C1192.19 1179.18 1302.97 998.91 1413.8 818.68C1426.09 798.69 1434.81 777.34 1438.95 754.21C1441.77 738.44 1442.59 722.58 1441.07 706.56C1437.66 670.61 1424.84 638.45 1402.81 609.95C1386.25 588.52 1365.74 571.78 1341.63 559.45C1340.14 558.69 1338.22 558.43 1337.28 556.66C1338.67 555.35 1340.13 555.87 1341.44 555.87C1390.94 555.84 1440.44 555.53 1489.93 555.92C1577.31 556.61 1642.1 614.62 1663.71 686.6C1670.23 708.33 1672.55 730.54 1670.7 753.08C1668.34 781.94 1659.18 808.68 1644.01 833.34C1612.91 883.9 1581.81 934.47 1550.71 985.03C1466.71 1121.57 1382.69 1258.1 1298.76 1394.68C1286.85 1414.06 1271.31 1429.45 1251.24 1440.22C1237.76 1447.46 1223.37 1452.09 1208.22 1453.74C1147.84 1460.32 1096.12 1423.68 1078.85 1371.5C1078.28 1369.79 1077.84 1368.04 1077.32 1366.22H1077.31Z" fill="black"/>
</svg>
