<?xml version="1.0" standalone="no"?>
<!DOCTYPE svg PUBLIC "-//W3C//DTD SVG 20010904//EN"
 "http://www.w3.org/TR/2001/REC-SVG-20010904/DTD/svg10.dtd">
<svg version="1.0" xmlns="http://www.w3.org/2000/svg"
 width="900.000000pt" height="900.000000pt" viewBox="0 0 900.000000 900.000000"
 preserveAspectRatio="xMidYMid meet">

<g transform="translate(0.000000,900.000000) scale(0.100000,-0.100000)"
fill="#000000" stroke="none">
<path d="M490 5394 c0 -3 26 -45 58 -92 31 -48 67 -105 80 -127 20 -35 22 -37
17 -11 -18 85 -18 86 -3 86 20 0 60 -30 136 -104 61 -59 73 -54 25 11 -27 35
-313 252 -313 237z"/>
<path d="M1083 5243 c-57 -25 -101 -48 -99 -50 2 -2 41 6 88 18 90 24 118 22
118 -11 0 -11 7 -20 15 -20 12 0 15 13 15 55 0 69 -3 69 -137 8z"/>
<path d="M3143 5263 c-42 -14 -52 -26 -34 -37 5 -4 42 1 83 10 40 9 83 18 96
20 12 3 22 9 22 14 0 15 -120 10 -167 -7z"/>
<path d="M3927 5214 c-143 -34 -317 -163 -317 -233 0 -39 40 -71 89 -71 20 0
79 9 131 20 127 26 204 26 230 0 29 -29 26 -79 -10 -128 -54 -75 -241 -149
-325 -128 -29 7 -29 9 -9 99 5 20 3 27 -9 27 -21 0 -52 -45 -67 -97 -12 -38
-11 -45 5 -63 42 -47 167 -35 299 29 135 65 218 170 202 255 -15 78 -81 92
-268 56 -124 -24 -171 -25 -192 -4 -14 14 -14 18 -1 44 20 38 114 105 178 126
48 16 52 16 84 -1 41 -23 91 -11 112 26 32 58 -12 72 -132 43z"/>
<path d="M2213 5180 c-28 -17 -33 -25 -33 -58 0 -47 24 -72 68 -72 62 0 93 69
56 125 -20 30 -48 32 -91 5z"/>
<path d="M5495 5163 c-49 -117 -90 -330 -80 -421 10 -94 21 -102 148 -102 77
0 108 4 125 16 30 21 30 49 0 40 -90 -27 -198 -14 -219 26 -14 26 -13 103 1
176 13 66 56 204 76 244 17 32 9 58 -17 58 -12 0 -24 -13 -34 -37z"/>
<path d="M6395 5188 c-74 -40 -53 -138 29 -138 41 0 66 28 66 75 0 61 -45 91
-95 63z"/>
<path d="M6788 5175 c-56 -15 -103 -43 -142 -84 -17 -17 -38 -31 -48 -31 -32
0 -39 -44 -36 -239 3 -178 4 -186 23 -186 17 0 20 8 23 59 3 50 6 57 20 52
263 -91 361 -116 460 -116 58 0 92 16 78 38 -3 5 -54 12 -113 15 -100 5 -204
27 -327 69 -37 12 -61 38 -36 38 6 0 45 14 86 31 105 44 218 120 250 169 49
73 30 165 -38 189 -41 14 -141 12 -200 -4z m187 -50 c79 -78 -30 -196 -270
-290 -49 -19 -92 -35 -94 -35 -2 0 -2 33 1 73 5 77 33 155 71 195 44 48 130
79 220 81 38 1 53 -4 72 -24z"/>
<path d="M3120 5169 c-89 -17 -131 -32 -141 -52 -8 -15 -8 -22 2 -28 11 -6 10
-11 -3 -26 -28 -31 -68 -140 -80 -217 -11 -70 -10 -76 13 -122 46 -94 145
-116 282 -64 90 34 144 90 103 106 -8 3 -47 -13 -86 -37 -110 -65 -203 -67
-240 -6 -22 35 -28 131 -9 142 8 6 120 15 282 25 4 0 7 6 7 14 0 19 -108 31
-207 22 -40 -3 -73 -4 -73 -1 0 3 12 34 26 70 14 36 24 71 21 79 -4 11 14 20
72 35 94 25 132 26 193 4 51 -18 69 -13 48 12 -39 48 -113 63 -210 44z"/>
<path d="M6018 5170 c-15 -4 -41 -18 -58 -30 -34 -24 -119 -139 -155 -210 -34
-68 -65 -176 -65 -230 0 -41 3 -50 21 -55 32 -11 42 9 40 77 -3 107 62 257
154 354 62 65 96 76 131 43 40 -37 128 -238 112 -254 -2 -3 -40 -9 -84 -15
-114 -15 -164 -35 -164 -66 0 -36 23 -39 72 -11 24 14 76 31 117 38 88 15 90
14 117 -89 20 -79 35 -100 53 -79 9 12 7 31 -9 88 -25 92 -25 106 0 114 30 9
24 25 -9 25 -26 0 -31 6 -60 83 -70 184 -127 242 -213 217z"/>
<path d="M7415 5170 c-106 -19 -172 -57 -137 -79 11 -6 8 -16 -12 -45 -53 -79
-86 -212 -72 -290 16 -83 105 -136 203 -121 94 14 213 75 213 109 0 31 -35 25
-103 -16 -58 -35 -81 -43 -133 -46 -60 -4 -65 -2 -94 26 -27 27 -30 37 -30 91
0 35 5 63 12 67 6 4 70 11 142 15 72 4 134 8 139 8 4 1 7 7 7 15 0 19 -108 31
-207 22 -85 -7 -86 -6 -48 79 13 31 22 61 19 68 -6 16 85 46 161 54 37 4 66 0
99 -12 67 -26 83 -7 27 31 -47 30 -106 38 -186 24z"/>
<path d="M5027 5140 c-89 -38 -143 -77 -204 -144 -79 -86 -101 -172 -64 -251
38 -84 115 -121 234 -112 127 9 281 107 327 210 54 118 -6 241 -134 277 -28 8
-46 19 -49 31 -7 26 -30 23 -110 -11z m150 -55 c72 -30 105 -80 105 -155 0
-122 -130 -244 -274 -258 -189 -17 -273 160 -144 301 39 43 55 47 48 12 -7
-39 24 -32 37 8 29 86 138 130 228 92z"/>
<path d="M4502 5140 c-158 -57 -282 -189 -299 -318 -16 -120 88 -203 232 -187
136 15 225 49 197 77 -7 7 -26 5 -64 -8 -79 -28 -202 -26 -249 3 -65 41 -78
121 -33 212 40 79 154 157 258 177 34 6 41 4 60 -21 18 -23 28 -27 49 -21 21
5 27 12 27 34 0 15 -7 38 -16 50 -20 28 -87 29 -162 2z"/>
<path d="M1116 5121 c-17 -7 -15 -10 16 -29 72 -45 50 -92 -64 -137 -84 -32
-109 -50 -149 -102 -35 -47 -39 -106 -8 -139 20 -21 20 -26 10 -260 -6 -132
-13 -350 -17 -486 -6 -225 -5 -248 10 -248 9 0 15 7 13 18 -1 9 4 139 11 287
34 720 33 699 19 710 -25 18 -38 52 -28 77 20 52 75 84 201 118 103 27 132 41
149 72 11 21 10 30 -9 64 -12 21 -27 45 -32 52 -11 13 -91 15 -122 3z"/>
<path d="M2077 5123 c-3 -4 -10 -27 -16 -50 -10 -35 -16 -43 -34 -43 -38 0
-139 -29 -203 -59 -208 -97 -236 -278 -49 -326 78 -20 183 -19 273 2 121 28
93 40 -81 35 -220 -7 -298 19 -279 93 3 11 31 46 63 78 58 58 185 129 256 143
29 6 32 4 35 -22 2 -21 9 -30 24 -32 22 -3 23 0 37 157 2 23 -16 40 -26 24z"/>
<path d="M2349 5106 c-7 -14 -10 -29 -6 -32 10 -10 81 -24 130 -24 26 0 47 -3
47 -7 0 -4 -16 -45 -36 -92 -45 -105 -64 -172 -64 -233 0 -89 35 -131 94 -109
35 14 31 39 -9 61 -46 25 -46 82 1 218 56 166 50 158 141 167 102 9 147 22
175 53 l23 25 -50 -6 c-254 -30 -320 -31 -412 -2 -18 6 -25 2 -34 -19z"/>
<path d="M581 4990 c49 -89 177 -190 240 -190 9 0 25 21 39 50 27 57 87 122
136 145 18 8 36 20 40 26 7 13 -36 -9 -129 -64 -63 -37 -71 -39 -118 -33 -71
10 -145 39 -192 77 l-40 33 24 -44z"/>
<path d="M2246 4977 c-16 -12 -19 -32 -21 -158 -3 -154 3 -182 38 -177 22 3
22 5 19 168 -2 91 -7 168 -11 173 -4 4 -15 1 -25 -6z"/>
<path d="M6416 4977 c-15 -11 -18 -33 -20 -160 -3 -156 4 -182 40 -175 18 3
19 12 16 168 -1 90 -6 168 -10 172 -4 4 -16 2 -26 -5z"/>
<path d="M634 4710 c13 -131 94 -673 141 -940 14 -79 25 -148 25 -152 0 -5 26
-8 58 -7 l57 1 -44 14 c-25 8 -48 17 -52 21 -7 7 -48 344 -94 763 -17 155 -42
331 -47 334 -2 1 -14 10 -27 21 l-24 20 7 -75z"/>
<path d="M4674 4434 c-17 -12 -78 -15 -303 -16 -154 -1 -281 -5 -281 -10 0
-15 57 -23 158 -20 100 2 104 1 127 -24 l25 -27 0 -313 c0 -273 -2 -315 -16
-329 -21 -21 -10 -47 18 -43 l23 3 5 365 5 365 115 0 c117 0 160 11 160 40 0
21 -13 24 -36 9z"/>
<path d="M8056 4434 c-16 -11 -61 -14 -216 -14 -150 0 -201 -3 -215 -14 -17
-12 -18 -27 -17 -147 1 -74 5 -147 10 -164 5 -17 5 -45 -1 -65 -5 -18 -7 -103
-6 -187 4 -143 3 -153 -14 -153 -12 0 -17 -6 -15 -17 3 -17 26 -18 297 -21
297 -2 321 0 321 34 0 17 -27 18 -33 2 -3 -10 -61 -13 -248 -13 -134 0 -252 4
-262 8 -16 6 -17 21 -15 169 l3 163 121 0 c123 0 154 8 154 41 0 16 -26 19
-35 4 -7 -11 -185 -14 -223 -4 -22 6 -22 7 -20 168 l3 161 213 3 c222 3 230 4
220 46 -3 13 -5 13 -22 0z"/>
<path d="M8909 4435 c-12 -12 -67 -15 -302 -17 -158 -1 -287 -5 -287 -10 0
-18 87 -30 173 -23 88 7 90 7 112 -19 23 -27 23 -29 25 -341 1 -277 -1 -315
-16 -329 -21 -22 -10 -48 18 -44 l23 3 5 365 5 365 115 1 c116 0 160 11 160
39 0 21 -15 26 -31 10z"/>
<path d="M2287 4401 c-16 -24 -44 -56 -62 -73 -19 -16 -57 -64 -86 -106 -71
-105 -97 -132 -130 -132 -28 0 -41 19 -44 65 -2 27 -183 267 -198 262 -18 -6
-24 -93 -30 -416 -5 -263 -7 -296 -22 -307 -26 -19 -11 -46 22 -42 l28 3 3
318 c2 273 4 317 17 317 8 0 15 -4 15 -9 0 -18 193 -256 210 -259 20 -3 108
101 178 210 23 35 44 57 56 57 14 1 17 -4 13 -20 -4 -14 -2 -19 8 -15 7 2 16
-2 19 -10 3 -9 6 -133 6 -276 0 -232 -2 -262 -17 -273 -9 -7 -14 -19 -10 -29
7 -19 45 -22 52 -3 3 6 4 185 3 396 l-3 385 -28 -43z"/>
<path d="M3935 4412 c-4 -15 -7 -150 -6 -300 1 -293 -5 -332 -49 -332 -30 0
-61 36 -55 63 5 17 -19 56 -105 172 -191 258 -315 414 -322 407 -16 -17 -28
-192 -28 -447 -1 -240 -3 -276 -17 -284 -21 -11 -10 -41 16 -41 11 0 23 4 26
10 3 5 6 149 5 320 0 252 2 310 13 310 12 0 84 -92 204 -257 193 -268 288
-383 313 -383 10 0 21 7 24 16 10 25 7 762 -3 768 -5 3 -12 -6 -16 -22z"/>
<path d="M5647 4430 c-4 -8 -9 -44 -11 -80 -3 -36 -8 -75 -12 -87 -6 -21 -38
-40 -57 -35 -22 6 3 -24 31 -37 l32 -16 0 -237 c0 -210 -2 -238 -17 -246 -21
-13 -10 -42 17 -42 11 0 23 6 26 13 3 8 6 124 7 258 l2 244 30 -1 c42 -1 448
-129 453 -143 2 -6 10 -11 17 -11 8 0 16 -17 20 -41 9 -54 -4 -269 -17 -269
-5 0 -8 -10 -6 -22 3 -26 36 -37 49 -16 12 17 12 778 0 778 -19 0 -31 -90 -25
-192 8 -131 -4 -178 -45 -178 -25 0 -176 45 -396 118 l-80 27 3 85 c2 86 -10
159 -21 130z"/>
<path d="M5302 4418 c-6 -6 -49 -12 -104 -12 -78 -1 -102 -6 -148 -27 -130
-61 -198 -169 -209 -334 -4 -67 -9 -89 -19 -87 -10 2 -11 -4 -6 -20 22 -70 51
-117 107 -172 108 -108 244 -141 393 -95 120 37 154 60 154 107 0 12 -6 10
-27 -10 -74 -69 -198 -99 -324 -78 -73 12 -144 56 -144 88 -1 10 -15 37 -33
61 -53 73 -75 144 -70 231 3 43 12 91 23 113 27 57 97 129 157 162 48 27 63
30 148 31 120 2 117 1 123 17 8 22 -7 39 -21 25z"/>
<path d="M6651 4372 c-18 -31 -42 -81 -52 -111 -20 -57 -44 -91 -64 -91 -7 0
-37 11 -66 24 -30 13 -70 27 -89 31 -35 7 -35 7 -16 -13 10 -12 45 -32 77 -44
95 -37 100 -43 83 -107 -29 -109 -124 -346 -147 -366 -26 -24 -25 -45 4 -45
27 0 68 88 135 290 42 129 55 160 67 160 30 0 163 -77 174 -100 7 -14 42 -122
79 -240 37 -118 71 -221 77 -227 5 -7 20 -13 33 -13 27 0 31 24 15 76 -6 16
-51 157 -102 314 -110 344 -166 510 -171 515 -2 3 -19 -21 -37 -53z m29 -126
c8 -28 19 -46 31 -49 49 -13 46 -107 -3 -107 -38 0 -93 35 -94 59 -1 12 -4 24
-7 27 -5 5 3 33 28 102 10 27 33 10 45 -32z"/>
<path d="M2737 4409 c-164 -39 -284 -211 -271 -390 4 -48 2 -59 -11 -59 -21 0
-19 -17 9 -75 38 -81 107 -150 195 -193 71 -35 82 -37 166 -37 107 1 177 25
255 86 134 106 188 312 121 463 -27 61 -93 149 -101 136 -8 -13 -33 -4 -82 28
-68 44 -191 62 -281 41z m225 -47 c68 -30 134 -95 169 -168 17 -35 38 -64 45
-64 16 0 28 -78 20 -131 -11 -67 -59 -161 -107 -207 -70 -68 -146 -102 -242
-109 -74 -5 -88 -3 -142 21 -70 32 -117 73 -110 96 3 10 -4 25 -16 36 -63 56
-98 181 -78 275 26 127 129 240 244 270 49 13 169 3 217 -19z"/>
<path d="M7143 4390 c-58 -35 -60 -47 -61 -353 -1 -298 -5 -347 -29 -347 -18
0 -12 -20 10 -34 35 -23 42 6 45 201 l4 185 31 -8 c18 -5 64 -9 102 -9 60 0
76 4 112 28 88 57 121 185 72 284 -19 37 -29 48 -46 46 -12 -2 -34 4 -50 12
-42 22 -150 20 -190 -5z m183 -35 c19 -15 40 -37 46 -50 6 -13 19 -26 29 -28
40 -11 14 -132 -38 -179 -51 -47 -142 -60 -213 -32 -39 16 -40 17 -41 68 -4
184 -4 184 14 204 53 58 140 65 203 17z"/>
</g>
</svg>
