<svg width="48" height="48" viewBox="0 0 48 48" fill="none" xmlns="http://www.w3.org/2000/svg">
<g clip-path="url(#clip0_183_68)">
<path d="M24 -0.0507812C10.737 -0.0507812 -0.0510025 10.7372 -0.0510025 24.0002C-0.0510025 37.2632 10.737 48.0512 24 48.0512C37.263 48.0512 48.051 37.2632 48.051 24.0002C48.051 10.7372 37.263 -0.0507812 24 -0.0507812ZM24 46.4492C11.622 46.4492 1.551 36.3782 1.551 24.0002C1.551 11.6222 11.622 1.55122 24 1.55122C36.378 1.55122 46.449 11.6222 46.449 24.0002C46.449 36.3782 36.378 46.4492 24 46.4492Z" fill="white"/>
<path d="M12.8 35C12.03 35 11.3711 34.731 10.8232 34.1929C10.2753 33.6548 10.0009 33.0072 10 32.25V15.75C10 14.9937 10.2744 14.3466 10.8232 13.8085C11.372 13.2704 12.0309 13.0009 12.8 13H35.2C35.97 13 36.6294 13.2695 37.1782 13.8085C37.727 14.3475 38.0009 14.9947 38 15.75V32.25C38 33.0062 37.7261 33.6539 37.1782 34.1929C36.6303 34.7319 35.9709 35.0009 35.2 35H12.8ZM24 25.375L35.2 18.5V15.75L24 22.625L12.8 15.75V18.5L24 25.375Z" fill="white"/>
</g>
<defs>
<clipPath id="clip0_183_68">
<rect width="48" height="48" fill="white"/>
</clipPath>
</defs>
</svg>
