<svg width="48" height="48" viewBox="0 0 48 48" fill="none" xmlns="http://www.w3.org/2000/svg">
<g clip-path="url(#clip0_183_71)">
<path d="M24 -0.0507812C10.737 -0.0507812 -0.0510025 10.7372 -0.0510025 24.0002C-0.0510025 37.2632 10.737 48.0512 24 48.0512C37.263 48.0512 48.051 37.2632 48.051 24.0002C48.051 10.7372 37.263 -0.0507812 24 -0.0507812ZM24 46.4492C11.622 46.4492 1.551 36.3782 1.551 24.0002C1.551 11.6222 11.622 1.55122 24 1.55122C36.378 1.55122 46.449 11.6222 46.449 24.0002C46.449 36.3782 36.378 46.4492 24 46.4492Z" fill="black"/>
<path d="M16.2289 22.2522C18.3089 26.34 21.66 29.6911 25.7478 31.7711L28.9256 28.5933C29.33 28.1889 29.8933 28.0733 30.3989 28.2322C32.0167 28.7667 33.75 29.0556 35.5556 29.0556C35.9386 29.0556 36.306 29.2077 36.5769 29.4786C36.8478 29.7495 37 30.1169 37 30.5V35.5556C37 35.9386 36.8478 36.306 36.5769 36.5769C36.306 36.8478 35.9386 37 35.5556 37C29.043 37 22.7972 34.4129 18.1922 29.8078C13.5871 25.2028 11 18.957 11 12.4444C11 12.0614 11.1522 11.694 11.4231 11.4231C11.694 11.1522 12.0614 11 12.4444 11H17.5C17.8831 11 18.2505 11.1522 18.5214 11.4231C18.7923 11.694 18.9444 12.0614 18.9444 12.4444C18.9444 14.25 19.2333 15.9833 19.7678 17.6011C19.9267 18.1067 19.8111 18.67 19.4067 19.0744L16.2289 22.2522Z" fill="black"/>
</g>
<defs>
<clipPath id="clip0_183_71">
<rect width="48" height="48" fill="white"/>
</clipPath>
</defs>
</svg>
