<svg width="148" height="148" viewBox="0 0 148 148" fill="none" xmlns="http://www.w3.org/2000/svg">
<path d="M50.6323 59.1563C50.5753 59.1393 50.522 59.1119 50.468 59.1097C50.3185 59.1023 50.169 59.1045 50.0196 59.1045C45.6987 59.1045 41.3778 59.1023 37.057 59.1053C35.7094 59.106 34.4093 58.8714 33.192 58.2846C30.4073 56.9408 28.6809 54.7556 28.1023 51.7112C27.2535 47.2438 29.9959 42.661 34.6942 41.4237C35.4623 41.2217 36.2482 41.1314 37.0437 41.1322C39.5552 41.1336 42.0675 41.1322 44.5791 41.1322C49.2588 41.1322 53.9386 41.1314 58.6184 41.1322C60.4595 41.1322 62.2503 41.4282 63.9449 42.16C67.8735 43.8576 70.4362 46.7909 71.7045 50.8617C72.1759 52.3742 72.3394 53.9342 72.2284 55.5133C72.0812 57.6194 71.4714 59.59 70.3873 61.4037C69.6518 62.6351 68.8903 63.8509 68.1385 65.0726C60.3255 77.7747 52.5104 90.4754 44.7012 103.18C43.9286 104.437 42.9555 105.488 41.6975 106.268C40.6571 106.912 39.5345 107.327 38.3224 107.52C33.6626 108.261 29.136 105.246 28.1393 100.479C27.6531 98.1521 28.0579 95.961 29.2929 93.9319C30.5435 91.8769 31.8119 89.833 33.0728 87.784C38.8507 78.3919 44.6287 68.9998 50.4051 59.607C50.4895 59.4701 50.6034 59.345 50.6323 59.1549V59.1563Z" fill="black"/>
<path d="M73.2119 41.1315C73.388 41.1315 73.5072 41.1315 73.6263 41.1315C77.2146 41.1315 80.8028 41.127 84.3911 41.133C86.5119 41.1367 88.5484 41.5518 90.445 42.519C94.1302 44.3986 96.4731 47.3719 97.549 51.3531C97.8709 52.5438 98.0004 53.7618 97.962 54.9932C97.8872 57.3737 97.2183 59.5812 95.9765 61.6132C95.0959 63.054 94.2087 64.4903 93.3244 65.9281C85.6913 78.3372 78.0574 90.7448 70.428 103.156C69.7783 104.214 68.991 105.141 67.989 105.876C66.8006 106.747 65.4782 107.294 64.0174 107.523C59.6758 108.203 55.5274 105.632 54.1384 101.544C54.134 101.53 54.1325 101.514 54.1258 101.501C53.9912 101.232 54.0504 101.007 54.2087 100.751C55.7916 98.1988 57.3604 95.6377 58.9329 93.0795C65.5759 82.2725 72.2174 71.4648 78.8626 60.6601C79.6669 59.3518 80.2819 57.968 80.6334 56.4702C80.9856 54.971 81.0715 53.4554 80.8842 51.9288C80.4587 48.4582 78.9151 45.5715 76.3096 43.2494C75.48 42.5101 74.5558 41.9055 73.5671 41.4001C73.4546 41.3431 73.3111 41.3261 73.2112 41.1322L73.2119 41.1315Z" fill="black"/>
<path d="M79.7209 101.1C79.8231 100.931 79.9222 100.763 80.0236 100.598C88.2221 87.2592 96.4198 73.9192 104.621 60.5822C105.531 59.103 106.176 57.5231 106.482 55.8114C106.691 54.6445 106.752 53.4708 106.639 52.2853C106.387 49.625 105.438 47.2452 103.808 45.1362C102.583 43.5504 101.065 42.3116 99.2806 41.3992C99.1704 41.343 99.0283 41.3237 98.9587 41.1927C99.0616 41.0958 99.1696 41.1343 99.2666 41.1343C102.93 41.1321 106.593 41.1091 110.255 41.138C116.721 41.189 121.515 45.4818 123.115 50.8083C123.597 52.4163 123.769 54.0599 123.632 55.7278C123.457 57.8635 122.779 59.8422 121.657 61.6671C119.355 65.4085 117.054 69.1507 114.753 72.8921C108.537 82.9961 102.319 93.0993 96.1082 103.206C95.2269 104.64 94.0769 105.779 92.5918 106.576C91.5942 107.112 90.5294 107.455 89.4083 107.577C84.9402 108.064 81.1129 105.352 79.8349 101.491C79.7927 101.364 79.7602 101.235 79.7217 101.1H79.7209Z" fill="black"/>
</svg>
